<?xml version="1.0" encoding="UTF-8" standalone="no"?>
<!-- Created with Inkscape (http://www.inkscape.org/) -->

<svg
   xmlns:osb="http://www.openswatchbook.org/uri/2009/osb"
   xmlns:dc="http://purl.org/dc/elements/1.1/"
   xmlns:cc="http://creativecommons.org/ns#"
   xmlns:rdf="http://www.w3.org/1999/02/22-rdf-syntax-ns#"
   xmlns:svg="http://www.w3.org/2000/svg"
   xmlns="http://www.w3.org/2000/svg"
   xmlns:sodipodi="http://sodipodi.sourceforge.net/DTD/sodipodi-0.dtd"
   xmlns:inkscape="http://www.inkscape.org/namespaces/inkscape"
   width="512"
   height="512"
   id="svg2"
   version="1.1"
   inkscape:version="0.48.5 r10040"
   sodipodi:docname="diskicon.svg">
  <defs
     id="defs4">
    <linearGradient
       id="linearGradient3837"
       osb:paint="solid">
      <stop
         style="stop-color:#ff0000;stop-opacity:1;"
         offset="0"
         id="stop3839" />
    </linearGradient>
  </defs>
  <sodipodi:namedview
     id="base"
     pagecolor="#ffffff"
     bordercolor="#666666"
     borderopacity="1.0"
     inkscape:pageopacity="0.0"
     inkscape:pageshadow="2"
     inkscape:zoom="1"
     inkscape:cx="198"
     inkscape:cy="146.22572"
     inkscape:document-units="px"
     inkscape:current-layer="g3000"
     showgrid="false"
     inkscape:window-width="1691"
     inkscape:window-height="954"
     inkscape:window-x="0"
     inkscape:window-y="0"
     inkscape:window-maximized="0" />
  <metadata
     id="metadata7">
    <rdf:RDF>
      <cc:Work
         rdf:about="">
        <dc:format>image/svg+xml</dc:format>
        <dc:type
           rdf:resource="http://purl.org/dc/dcmitype/StillImage" />
        <dc:title></dc:title>
      </cc:Work>
    </rdf:RDF>
  </metadata>
  <g
     inkscape:label="Layer 1"
     inkscape:groupmode="layer"
     id="layer1"
     transform="translate(0,-540.36218)">
    <g
       id="g3000"
       transform="matrix(1.1261354,0,0,1.1721276,-166.01885,257.38113)">
      <rect
         y="244.36218"
         x="204"
         height="422"
         width="311.83969"
         id="rect2998"
         style="fill:#ffffff;fill-rule:evenodd;stroke:none;stroke-width:0.96052205999999996px;stroke-linecap:butt;stroke-linejoin:miter;stroke-opacity:1" />
      <path
         inkscape:connector-curvature="0"
         id="path2996"
         d="m 199.71428,676.23256 c -18.40735,-4.00997 -32.97637,-17.25142 -38.65459,-35.13228 l -2.34541,-7.38571 0,-173.75181 c 0,-191.64642 -0.41624,-178.95077 6.2812,-191.57755 6.11794,-11.53424 19.12823,-21.75376 32.0872,-25.20432 3.7765,-1.00557 12.85563,-1.36953 34.3816,-1.37826 l 29.25,-0.0119 0,62.7899 c 0,74.63404 -0.2409,72.6923 10.427,84.04429 5.26955,5.60746 11.74563,8.86415 20.25096,10.18379 4.51327,0.70026 34.94127,0.96127 89.82371,0.77051 l 82.99833,-0.28849 5.99263,-2.41263 c 8.16853,-3.28864 16.41457,-11.55068 19.34474,-19.38226 2.13533,-5.70716 2.16263,-6.60026 2.16263,-70.74262 l 0,-64.96249 22.37108,0 22.37108,0 29.14606,29.90234 29.14606,29.90234 -0.26714,167.34766 -0.26714,167.34766 -2.23092,5.85109 c -6.06846,15.91593 -17.59711,27.29846 -33.26908,32.84745 l -6.5,2.30146 -173,0.1789 c -145.97606,0.15096 -174.01535,-0.0423 -179.5,-1.2371 z m 34.83502,-25.85649 c 1.50464,-0.77807 3.28389,-2.46557 3.95389,-3.75 0.91443,-1.75302 1.27963,-18.91655 1.46463,-68.83531 l 0.24646,-66.5 2.39866,-3.36314 c 4.64953,-6.51908 -4.47433,-6.13686 146.4925,-6.13686 l 137.45539,0 3.04272,-2.56028 c 5.42092,-4.5614 4.86638,-13.1104 -1.05396,-16.24815 -1.83112,-0.97049 -32.77671,-1.17875 -143.33531,-0.96464 l -141,0.27307 -6.40013,3.46934 c -7.48835,4.05925 -12.97948,10.4202 -16.02724,18.56609 -2.02273,5.40623 -2.07177,7.15775 -2.03719,72.75208 0.038,72.03111 -0.0704,70.46531 5.07463,73.31698 3.12818,1.73382 6.3473,1.72747 9.72495,-0.0192 z M 409.71428,373.79076 c -1.94925,-1.94925 -2,-3.33333 -2,-54.54545 l 0,-52.54546 2.45455,-2.45455 2.45454,-2.45454 26.09091,0 26.09091,0 2.45454,2.45454 2.45455,2.45455 0,52.35689 c 0,51.30808 -0.0408,52.40074 -2.03896,54.54546 -2.00012,2.14688 -2.55241,2.18856 -29,2.18856 -25.62771,0 -27.05995,-0.0989 -28.96104,-2 z"
         style="fill:#000000" />
    </g>
  </g>
</svg>
