<?xml version="1.0" standalone="no"?><!DOCTYPE svg PUBLIC "-//W3C//DTD SVG 1.1//EN" "http://www.w3.org/Graphics/SVG/1.1/DTD/svg11.dtd"><svg width="64px" height="64px" version="1.1" xmlns="http://www.w3.org/2000/svg" xmlns:xlink="http://www.w3.org/1999/xlink" xml:space="preserve" style="fill-rule:evenodd;clip-rule:evenodd;stroke-linejoin:round;stroke-miterlimit:1.41421;"><g><g id="Layer1"><g transform="matrix(1.97977,0,0,1.97977,2.78597,-10.7302)"><path d="M25,5.41992c-0.195312,0 -0.374349,0.0813801 -0.537109,0.244141c-3.54818,3.10872 -6.96615,6.54297 -10.2539,10.3027c-2.14844,-2.65299 -3.97135,-5.37109 -5.46875,-8.1543c-0.195312,-0.374349 -0.602214,-0.561523 -1.2207,-0.561523c-0.227864,0 -0.504557,0.358073 -0.830078,1.07422c-0.162761,0.358073 -0.252279,0.634766 -0.268555,0.830078c-0.683594,-0.553386 -1.21257,-0.830078 -1.58691,-0.830078c-0.309245,0 -0.5778,0.227864 -0.805664,0.683594c-0.325521,0.69987 -0.488281,1.22884 -0.488281,1.58691c0,0.406901 0.154622,1.04167 0.463867,1.9043c1.41602,3.80859 2.99479,7.05566 4.73633,9.74121c-2.79948,3.02734 -5.12695,5.79427 -6.98242,8.30078c-0.341797,0.439453 -0.512695,0.805664 -0.512695,1.09863c0,0.341797 0.130208,0.683594 0.390625,1.02539c0.130208,0.195312 0.260417,0.309245 0.390625,0.341797c-0.439453,0.651042 -0.65918,1.16374 -0.65918,1.53809c0,0.244141 0.260417,0.618489 0.78125,1.12305c0.406901,0.423177 0.789388,0.634766 1.14746,0.634766c0.260417,0 0.528971,-0.0895184 0.805664,-0.268555c0.032552,0.195312 0.154622,0.512695 0.366211,0.952148c0.260417,0.537109 0.528971,0.789388 0.805664,0.756836c0.292969,0 0.561523,-0.179036 0.805664,-0.537109c1.25326,-1.92057 3.51562,-4.74447 6.78711,-8.47168c1.72526,2.7181 3.22266,4.76074 4.49219,6.12793c0.374349,0.390625 0.724284,0.585938 1.0498,0.585938c0.390625,0 0.838216,-0.195312 1.34277,-0.585938c0.195312,-0.146484 0.349935,-0.349935 0.463867,-0.610352c0.423177,0.341797 0.895182,0.512695 1.41602,0.512695c0.455729,0 0.854492,-0.415039 1.19629,-1.24512c0.195312,-0.488281 0.309245,-0.854492 0.341797,-1.09863c0.520833,-0.032552 0.927734,-0.170898 1.2207,-0.415039c0.423177,-0.374349 0.634766,-0.90332 0.634766,-1.58691c0,-0.358073 -0.12207,-0.65918 -0.366211,-0.90332c-2.09961,-2.3112 -4.20736,-4.9235 -6.32324,-7.83691c3.35286,-4.44336 6.74642,-8.22754 10.1807,-11.3525c0.227864,-0.227864 0.341797,-0.626628 0.341797,-1.19629c0,-0.292969 -0.0976562,-0.537109 -0.292969,-0.732422c-0.211589,-0.195312 -0.545247,-0.374349 -1.00098,-0.537109c-0.146484,-0.0813801 -0.398763,-0.113932 -0.756836,-0.0976562c-0.113932,-0.830078 -0.317383,-1.39974 -0.610352,-1.70898c-0.374349,-0.423177 -0.773112,-0.634766 -1.19629,-0.634766Z" style="fill:#fa4786;fill-rule:nonzero;"/></g></g></g></svg>