<?xml version="1.0" standalone="no"?><!DOCTYPE svg PUBLIC "-//W3C//DTD SVG 1.1//EN" "http://www.w3.org/Graphics/SVG/1.1/DTD/svg11.dtd"><svg width="256px" height="256px" version="1.1" xmlns="http://www.w3.org/2000/svg" xmlns:xlink="http://www.w3.org/1999/xlink" xml:space="preserve" style="fill-rule:evenodd;clip-rule:evenodd;stroke-linejoin:round;stroke-miterlimit:1.41421;"><g><g id="Layer1"><g transform="matrix(1.22998,0,0,1.22998,-41.0596,-11.271)"><g transform="matrix(1,0,0,1,79.6578,0)"><g transform="matrix(48.3791,0,0,48.3791,-5832.33,-6224.47)"><path d="M123.354,130.014l0.000183228,2.584c0,0 -1.74118,0 -2.48318,0.004c-0.149,0 -0.213,-0.062 -0.212,-0.209c0.001,-1.099 0.001,-2.198 0,-3.297c0,-0.113 0.034,-0.201 0.164,-0.201c0.461,-0.003 0.921,-0.001 1.404,-0.001l0,1.12l1.127,0Z" style="fill:#6e6e6e;fill-rule:nonzero;"/></g><g transform="matrix(48.3791,0,0,48.3791,-5831.05,-6226.01)"><path d="M123.328,129.787l-0.854,0l0,-0.858c0.278,0.279 0.558,0.561 0.854,0.858" style="fill:#6e6e6e;fill-rule:nonzero;"/></g></g><g transform="matrix(1,0,0,1,58.0542,24.8079)"><g transform="matrix(48.3791,0,0,48.3791,-5832.33,-6224.47)"><path d="M123.354,130.014l0.000183228,2.584c0,0 -1.74118,0 -2.48318,0.004c-0.149,0 -0.213,-0.062 -0.212,-0.209c0.001,-1.099 0.001,-2.198 0,-3.297c0,-0.113 0.034,-0.201 0.164,-0.201c0.461,-0.003 0.921,-0.001 1.404,-0.001l0,1.12l1.127,0Z" style="fill:#cacaca;fill-rule:nonzero;"/></g><g transform="matrix(48.3791,0,0,48.3791,-5831.05,-6226.01)"><path d="M123.328,129.787l-0.854,0l0,-0.858c0.278,0.279 0.558,0.561 0.854,0.858" style="fill:#cacaca;fill-rule:nonzero;"/></g></g><g transform="matrix(1,0,0,0.382812,1.96745,63.8293)"><rect x="69.8112" y="103.555" width="106.517" height="19.2721" style="fill:#fff;"/></g><g transform="matrix(0.942669,0,0,0.382812,5.96983,80.9334)"><rect x="69.8112" y="103.555" width="106.517" height="19.2721" style="fill:#fff;"/></g><g transform="matrix(1,0,0,0.382812,1.96745,97.9074)"><rect x="69.8112" y="103.555" width="106.517" height="19.2721" style="fill:#fff;"/></g><g transform="matrix(0.952634,0,0,0.382812,5.27415,113.868)"><rect x="69.8112" y="103.555" width="106.517" height="19.2721" style="fill:#fff;"/></g></g></g></g></svg>